<?xml version="1.0" encoding="iso-8859-1"?>
<!-- Generator: Adobe Illustrator 19.0.0, SVG Export Plug-In . SVG Version: 6.00 Build 0)  -->
<svg version="1.1" id="Layer_1" xmlns="http://www.w3.org/2000/svg" xmlns:xlink="http://www.w3.org/1999/xlink" x="0px" y="0px"
	 viewBox="0 0 480 480" style="enable-background:new 0 0 480 480;" xml:space="preserve">
<g>
	<g>
		<g>
			<path d="M207.853,363.618c4.652,3.439,16.871,21.792,26.718,40.222c1.745,3.266,5.143,5.288,8.818,5.288
				c0.164,0,0.33-0.004,0.495-0.012c3.863-0.191,7.271-2.592,8.749-6.167c7.478-18.083,17.502-36.238,21.902-39.783
				c86.213-16.426,148.676-91.949,148.676-179.961C423.211,82.185,341.023,0,240,0S56.789,82.185,56.789,183.204
				c0,43.477,15.504,85.634,43.655,118.706C128.05,334.34,166.15,356.225,207.853,363.618z M240,20
				c89.995,0,163.211,73.213,163.211,163.204c0,78.705-56.061,146.196-133.301,160.48c-5.832,1.079-12.906,5.308-25.079,28.742
				c-0.845,1.627-1.663,3.247-2.444,4.828c-1.078-1.78-2.209-3.614-3.375-5.458c-13.623-21.55-20.566-26.667-26.777-27.715
				c-78.483-13.448-135.447-81.106-135.447-160.876C76.789,93.213,150.005,20,240,20z"/>
			<path d="M321.899,371.222c-5.39-1.207-10.736,2.184-11.944,7.573c-1.207,5.389,2.184,10.737,7.573,11.944
				c38.87,8.705,56.574,22.033,56.574,30.731c0,5.959-9.235,16.04-35.264,24.837C312.714,455.137,277.791,460,240.501,460
				c-37.302,0-72.233-4.863-98.359-13.693c-26.028-8.797-35.264-18.878-35.264-24.837c0-8.013,15.827-20.592,50.576-29.275
				c5.358-1.339,8.616-6.768,7.277-12.126c-1.339-5.358-6.772-8.613-12.126-7.277c-42.385,10.592-65.727,27.88-65.727,48.679
				c0,12.44,8.477,30.135,48.86,43.785C163.873,474.763,201.079,480,240.501,480c39.411,0,76.608-5.237,104.741-14.746
				c40.383-13.65,48.86-31.345,48.86-43.785C394.102,399.495,368.46,381.65,321.899,371.222z"/>
			<path d="M193.19,240.23c-0.631,3.755,0.926,7.542,4.014,9.768c1.737,1.252,3.788,1.888,5.849,1.888
				c1.605,0,3.216-0.386,4.688-1.167l35.462-18.827l35.593,18.548c1.464,0.763,3.071,1.128,4.65,1.132
				c5.519-0.005,9.991-4.48,9.991-10c0-0.818-0.098-1.613-0.283-2.374l-6.804-38.885l28.645-28.123
				c2.716-2.667,3.683-6.644,2.494-10.26c-1.19-3.616-4.329-6.243-8.098-6.777l-39.748-5.627l-17.893-35.905
				c-1.692-3.395-5.158-5.54-8.95-5.54c-0.011,0-0.023,0-0.034,0c-3.805,0.013-7.273,2.184-8.947,5.601L216.17,149.71l-39.711,5.919
				c-3.764,0.561-6.883,3.21-8.047,6.833c-1.164,3.623-0.17,7.593,2.564,10.241l28.861,27.954L193.19,240.23z M199.436,172.425
				l24.878-3.708c3.253-0.485,6.059-2.538,7.506-5.491l11.057-22.57l11.21,22.496c1.468,2.945,4.29,4.979,7.548,5.441l24.888,3.523
				l-17.936,17.608c-2.348,2.305-3.412,5.618-2.844,8.859l4.332,24.759l-22.294-11.618c-2.92-1.522-6.402-1.508-9.31,0.036
				l-22.199,11.785l4.159-24.76c0.545-3.245-0.541-6.55-2.904-8.839L199.436,172.425z"/>
			<path d="M240,292.332c59.364,0,107.66-48.296,107.66-107.66S299.364,77.011,240,77.011s-107.66,48.296-107.66,107.66
				C132.34,244.035,180.636,292.332,240,292.332z M240,97.011c48.336,0,87.66,39.324,87.66,87.66s-39.324,87.66-87.66,87.66
				s-87.66-39.324-87.66-87.66C152.34,136.335,191.664,97.011,240,97.011z"/>
		</g>
	</g>
</g>
<g>
</g>
<g>
</g>
<g>
</g>
<g>
</g>
<g>
</g>
<g>
</g>
<g>
</g>
<g>
</g>
<g>
</g>
<g>
</g>
<g>
</g>
<g>
</g>
<g>
</g>
<g>
</g>
<g>
</g>
</svg>
