<?xml version="1.0" encoding="iso-8859-1"?>
<!-- Generator: Adobe Illustrator 19.0.0, SVG Export Plug-In . SVG Version: 6.00 Build 0)  -->
<svg version="1.1" id="Capa_1" xmlns="http://www.w3.org/2000/svg" xmlns:xlink="http://www.w3.org/1999/xlink" x="0px" y="0px"
	 viewBox="0 0 490.05 490.05" style="enable-background:new 0 0 490.05 490.05;" xml:space="preserve">
<g>
	<path d="M311.425,184.15l21.6,12.5c1.9,1.1,5,1.1,6.9,0l12.3-7.2c1.9-1.1,1.9-2.9,0-4l-21.6-12.5c-1.9-1.1-5-1.1-6.9,0l-12.3,7.2
		C309.525,181.25,309.525,183.05,311.425,184.15z"/>
	<path d="M477.925,225.25l0.1-58c0-0.2,0-0.3,0-0.5v-0.1l0,0c-0.2-1.3-1.1-2.6-2.8-3.7l-279.6-161.3c-3.8-2.2-10.1-2.2-13.9,0
		l-166.7,96.8c-2.2,1.3-3.1,3-2.7,4.7l0,0v55l-0.3,0.2l0.3,0.2v53.9l-0.3,0.2l0.3,0.2v54l-0.3,0.2l0.3,0.2v54.1l269.6,156.1
		l16.1,9.3l5.6,3.3l174-101.1l0.1-54.6v-0.1L477.925,225.25l0.1-0.1L477.925,225.25z M86.225,87.55c-1.6-0.9-3.2-1.7-5-2.4
		l77.7-45.1c1.2,1,2.5,2,4.1,2.9c14.2,8.2,37.2,8.2,51.3,0c1.6-0.9,3-1.9,4.2-3l189,109c-2.5,0.9-4.9,1.9-7,3.2
		c-14.1,8.2-14,21.5,0.2,29.7c2.2,1.3,4.6,2.3,7.2,3.2l-78.4,45.6c-1.5-1.5-3.4-2.9-5.6-4.1c-14.2-8.2-37.2-8.2-51.3,0
		c-1.1,0.6-2,1.3-2.9,2l-188.5-108.8c1.8-0.7,3.5-1.5,5.2-2.5C100.525,109.05,100.425,95.75,86.225,87.55z M457.025,375.75
		l-153.5,89.1l-270.6-156.5v-29.2l248.7,143.7l16.1,9.3l5.7,3.3l153.6-89.4V375.75z M457.025,320.95l-153.8,89.3l-270.3-156.3v-29.2
		l249,144l16.1,9.3l5.6,3.3l153.4-89.2V320.95z M457.025,265.25l-153.5,90.9l-270.6-156.4v-29.3l248.7,143.7l16.1,9.3l5.7,3.3
		l153.6-89.3V265.25z M457.025,212.15l-153.8,89.3l-270.3-156v-28.6l261.7,151.1c3.9,2.2,10.1,2.2,13.9,0l148.5-86.3V212.15z"/>
	<path d="M138.025,84.05l21.6,12.5c1.9,1.1,5,1.1,6.9,0l12.3-7.2c1.9-1.1,1.9-2.9,0-4l-21.6-12.4c-1.9-1.1-5-1.1-6.9,0l-12.3,7.1
		C136.125,81.15,136.125,82.95,138.025,84.05z"/>
	<path d="M300.425,102.65c-30.7-17.7-80.4-17.7-111,0c-30.5,17.7-30.3,46.5,0.4,64.2s80.4,17.7,110.9,0
		C331.225,149.15,331.025,120.35,300.425,102.65z M236.425,144.05h-21.6v-12.5v-12.1l21.6,0.1v12.1l49.4,0.1v12.5L236.425,144.05z"
		/>
</g>
<g>
</g>
<g>
</g>
<g>
</g>
<g>
</g>
<g>
</g>
<g>
</g>
<g>
</g>
<g>
</g>
<g>
</g>
<g>
</g>
<g>
</g>
<g>
</g>
<g>
</g>
<g>
</g>
<g>
</g>
</svg>
